<svg xmlns="http://www.w3.org/2000/svg" width="550.095" height="241.867" viewBox="0 0 550.095 241.867">
  <g id="Grupo_188" data-name="Grupo 188" transform="translate(-1163.023 -331.5)">
    <g id="pattern_2_" data-name="pattern (2)" transform="translate(1172.602 350.77)">
      <rect id="Rectángulo_1136" data-name="Rectángulo 1136" width="100" height="100" fill="rgba(255,255,255,0)"/>
      <path id="Trazado_246" data-name="Trazado 246" d="M92.4,11.82a1.2,1.2,0,0,1,1.11,1.74A6.47,6.47,0,0,0,105,19.46a1.2,1.2,0,0,1,1.6-.52,1.176,1.176,0,0,1,.59.7,1.191,1.191,0,0,1-.1.88,8.824,8.824,0,0,1-15.7-8.06,1.17,1.17,0,0,1,1-.64Zm-100,0a1.2,1.2,0,0,1,1.05.554,1.2,1.2,0,0,1,.06,1.186,6.47,6.47,0,0,0,2.8,8.68,6.47,6.47,0,0,0,8.68-2.78,1.2,1.2,0,0,1,1.6-.52,1.129,1.129,0,0,1,.6.7,1.191,1.191,0,0,1-.1.88,8.77,8.77,0,0,1-5.14,4.36,8.8,8.8,0,0,1-6.735-.543A8.8,8.8,0,0,1-9.15,19.18a8.79,8.79,0,0,1,.54-6.72,1.17,1.17,0,0,1,1-.64ZM53.9,27.08a7.905,7.905,0,0,1,4.98,1.99,1.079,1.079,0,0,1-.64,1.88,1.027,1.027,0,0,1-.78-.27,5.84,5.84,0,0,0-7.72,8.74,1.04,1.04,0,0,1,.1,1.5,1.082,1.082,0,0,1-.74.37,1.044,1.044,0,0,1-.77-.27,7.956,7.956,0,0,1,4.78-13.93,6.942,6.942,0,0,1,.79-.01ZM46.72,50.42a9.4,9.4,0,1,1-9.1,8.733,9.42,9.42,0,0,1,9.1-8.733Zm.06,1.78a7.624,7.624,0,1,0,7.855,7.385A7.624,7.624,0,0,0,46.78,52.2ZM25.38,68.93l4.83,9.23L16.48,85.33l-4.82-9.22Z" fill="#fff"/>
      <path id="Trazado_247" data-name="Trazado 247" d="M107.9,52.52a4.225,4.225,0,0,0,3.78-2.61,2.643,2.643,0,0,1,5.01,0,4.062,4.062,0,0,0,7.58,0,2.834,2.834,0,0,1,2.5-1.8,2.668,2.668,0,0,1,2.2,1.27.713.713,0,0,0,.89.25h.02a.7.7,0,0,0,.29-1.02,4.08,4.08,0,0,0-3.4-1.92,4.225,4.225,0,0,0-3.78,2.61,2.643,2.643,0,0,1-5.01,0,4.062,4.062,0,0,0-7.58,0,2.636,2.636,0,0,1-5,0,4.061,4.061,0,0,0-7.57-.02.74.74,0,0,0,.25.94.72.72,0,0,0,1.03-.3,2.636,2.636,0,0,1,5,0,4.228,4.228,0,0,0,3.79,2.6Zm-.04-4.91A4.239,4.239,0,0,0,111.65,45a2.636,2.636,0,0,1,5,0,4.062,4.062,0,0,0,7.58,0,2.643,2.643,0,0,1,5.01,0,.72.72,0,0,0,1.3-.62,4.062,4.062,0,0,0-7.58,0,2.643,2.643,0,0,1-5.01,0,4.062,4.062,0,0,0-7.58,0,2.636,2.636,0,0,1-5,0,4.062,4.062,0,0,0-7.58,0,.72.72,0,0,0,1.3.62,2.636,2.636,0,0,1,5,0,4.191,4.191,0,0,0,3.77,2.6Zm-65-66.88L25.77-6.92,8.72,5.44l19.23,8.6,19.24,8.61L45.02,1.7Zm0,100L25.77,93.08,8.72,105.44l19.23,8.6,19.24,8.61-2.17-20.96ZM7.9,52.52a4.225,4.225,0,0,0,3.78-2.61,2.845,2.845,0,0,1,2.5-1.8,2.836,2.836,0,0,1,2.51,1.8,4.225,4.225,0,0,0,3.8,2.6,4.226,4.226,0,0,0,3.78-2.6,2.834,2.834,0,0,1,2.5-1.8,2.668,2.668,0,0,1,2.2,1.27.71.71,0,0,0,.89.25h.02a.7.7,0,0,0,.29-1.02,4.08,4.08,0,0,0-3.4-1.92,4.214,4.214,0,0,0-3.78,2.61,2.873,2.873,0,0,1-2.5,1.8,2.853,2.853,0,0,1-2.51-1.8,4.225,4.225,0,0,0-3.8-2.6,4.226,4.226,0,0,0-3.78,2.6,2.851,2.851,0,0,1-2.5,1.8,2.84,2.84,0,0,1-2.5-1.8,4.225,4.225,0,0,0-3.8-2.6,4.192,4.192,0,0,0-3.77,2.58.74.74,0,0,0,.25.94.72.72,0,0,0,1.03-.3,2.851,2.851,0,0,1,2.5-1.8,2.84,2.84,0,0,1,2.5,1.8,4.218,4.218,0,0,0,3.79,2.6Zm-.04-4.91A4.239,4.239,0,0,0,11.65,45a2.834,2.834,0,0,1,2.5-1.8,2.823,2.823,0,0,1,2.5,1.8,4.225,4.225,0,0,0,3.8,2.6A4.226,4.226,0,0,0,24.23,45a2.845,2.845,0,0,1,2.5-1.8A2.836,2.836,0,0,1,29.24,45a.72.72,0,1,0,1.3-.62,4.062,4.062,0,0,0-7.58,0,2.845,2.845,0,0,1-2.5,1.8,2.836,2.836,0,0,1-2.51-1.8,4.223,4.223,0,0,0-3.79-2.6,4.228,4.228,0,0,0-3.79,2.6,2.834,2.834,0,0,1-2.5,1.8,2.834,2.834,0,0,1-2.5-1.8,4.225,4.225,0,0,0-3.8-2.6,4.226,4.226,0,0,0-3.78,2.6.72.72,0,0,0,.34.96A.72.72,0,0,0-.91,45a2.823,2.823,0,0,1,2.5-1.8A2.834,2.834,0,0,1,4.09,45a4.18,4.18,0,0,0,3.77,2.6Z" fill="#fff"/>
      <path id="Trazado_248" data-name="Trazado 248" d="M53.04,81.06a2,2,0,1,0,1.645-2.305A2,2,0,0,0,53.04,81.06ZM14.89,63.92a3.26,3.26,0,1,0-.965-2.315,3.28,3.28,0,0,0,.965,2.315Zm52.8-52.54a5.99,5.99,0,0,0,11.8-1.97,5.99,5.99,0,0,0-11.8,1.97Z" fill="#fff"/>
      <path id="Trazado_249" data-name="Trazado 249" d="M80.37,64.6a13.041,13.041,0,1,0,0,.01ZM26.83,26.14l-1.67,4.77-1.68,4.78-3.3-3.84L16.9,28l4.97-.93ZM81.15,41.86l1.76,4.73,1.78,4.74L79.7,50.5l-4.99-.84,3.22-3.9Z" fill="#fff"/>
    </g>
    <g id="pattern_2_2" data-name="pattern (2)" transform="translate(1582.508 374.77)">
      <rect id="Rectángulo_1136-2" data-name="Rectángulo 1136" width="100" height="100" fill="rgba(255,255,255,0)"/>
      <path id="Trazado_246-2" data-name="Trazado 246" d="M92.4,11.82a1.2,1.2,0,0,1,1.11,1.74A6.47,6.47,0,0,0,105,19.46a1.2,1.2,0,0,1,1.6-.52,1.176,1.176,0,0,1,.59.7,1.191,1.191,0,0,1-.1.88,8.824,8.824,0,0,1-15.7-8.06,1.17,1.17,0,0,1,1-.64Zm-100,0a1.2,1.2,0,0,1,1.05.554,1.2,1.2,0,0,1,.06,1.186,6.47,6.47,0,0,0,2.8,8.68,6.47,6.47,0,0,0,8.68-2.78,1.2,1.2,0,0,1,1.6-.52,1.129,1.129,0,0,1,.6.7,1.191,1.191,0,0,1-.1.88,8.77,8.77,0,0,1-5.14,4.36,8.8,8.8,0,0,1-6.735-.543A8.8,8.8,0,0,1-9.15,19.18a8.79,8.79,0,0,1,.54-6.72,1.17,1.17,0,0,1,1-.64ZM53.9,27.08a7.905,7.905,0,0,1,4.98,1.99,1.079,1.079,0,0,1-.64,1.88,1.027,1.027,0,0,1-.78-.27,5.84,5.84,0,0,0-7.72,8.74,1.04,1.04,0,0,1,.1,1.5,1.082,1.082,0,0,1-.74.37,1.044,1.044,0,0,1-.77-.27,7.956,7.956,0,0,1,4.78-13.93,6.942,6.942,0,0,1,.79-.01ZM46.72,50.42a9.4,9.4,0,1,1-9.1,8.733,9.42,9.42,0,0,1,9.1-8.733Zm.06,1.78a7.624,7.624,0,1,0,7.855,7.385A7.624,7.624,0,0,0,46.78,52.2ZM25.38,68.93l4.83,9.23L16.48,85.33l-4.82-9.22Z" fill="#fff"/>
      <path id="Trazado_247-2" data-name="Trazado 247" d="M107.9,52.52a4.225,4.225,0,0,0,3.78-2.61,2.643,2.643,0,0,1,5.01,0,4.062,4.062,0,0,0,7.58,0,2.834,2.834,0,0,1,2.5-1.8,2.668,2.668,0,0,1,2.2,1.27.713.713,0,0,0,.89.25h.02a.7.7,0,0,0,.29-1.02,4.08,4.08,0,0,0-3.4-1.92,4.225,4.225,0,0,0-3.78,2.61,2.643,2.643,0,0,1-5.01,0,4.062,4.062,0,0,0-7.58,0,2.636,2.636,0,0,1-5,0,4.061,4.061,0,0,0-7.57-.02.74.74,0,0,0,.25.94.72.72,0,0,0,1.03-.3,2.636,2.636,0,0,1,5,0,4.228,4.228,0,0,0,3.79,2.6Zm-.04-4.91A4.239,4.239,0,0,0,111.65,45a2.636,2.636,0,0,1,5,0,4.062,4.062,0,0,0,7.58,0,2.643,2.643,0,0,1,5.01,0,.72.72,0,0,0,1.3-.62,4.062,4.062,0,0,0-7.58,0,2.643,2.643,0,0,1-5.01,0,4.062,4.062,0,0,0-7.58,0,2.636,2.636,0,0,1-5,0,4.062,4.062,0,0,0-7.58,0,.72.72,0,0,0,1.3.62,2.636,2.636,0,0,1,5,0,4.191,4.191,0,0,0,3.77,2.6Zm-65-66.88L25.77-6.92,8.72,5.44l19.23,8.6,19.24,8.61L45.02,1.7Zm0,100L25.77,93.08,8.72,105.44l19.23,8.6,19.24,8.61-2.17-20.96ZM7.9,52.52a4.225,4.225,0,0,0,3.78-2.61,2.845,2.845,0,0,1,2.5-1.8,2.836,2.836,0,0,1,2.51,1.8,4.225,4.225,0,0,0,3.8,2.6,4.226,4.226,0,0,0,3.78-2.6,2.834,2.834,0,0,1,2.5-1.8,2.668,2.668,0,0,1,2.2,1.27.71.71,0,0,0,.89.25h.02a.7.7,0,0,0,.29-1.02,4.08,4.08,0,0,0-3.4-1.92,4.214,4.214,0,0,0-3.78,2.61,2.873,2.873,0,0,1-2.5,1.8,2.853,2.853,0,0,1-2.51-1.8,4.225,4.225,0,0,0-3.8-2.6,4.226,4.226,0,0,0-3.78,2.6,2.851,2.851,0,0,1-2.5,1.8,2.84,2.84,0,0,1-2.5-1.8,4.225,4.225,0,0,0-3.8-2.6,4.192,4.192,0,0,0-3.77,2.58.74.74,0,0,0,.25.94.72.72,0,0,0,1.03-.3,2.851,2.851,0,0,1,2.5-1.8,2.84,2.84,0,0,1,2.5,1.8,4.218,4.218,0,0,0,3.79,2.6Zm-.04-4.91A4.239,4.239,0,0,0,11.65,45a2.834,2.834,0,0,1,2.5-1.8,2.823,2.823,0,0,1,2.5,1.8,4.225,4.225,0,0,0,3.8,2.6A4.226,4.226,0,0,0,24.23,45a2.845,2.845,0,0,1,2.5-1.8A2.836,2.836,0,0,1,29.24,45a.72.72,0,1,0,1.3-.62,4.062,4.062,0,0,0-7.58,0,2.845,2.845,0,0,1-2.5,1.8,2.836,2.836,0,0,1-2.51-1.8,4.223,4.223,0,0,0-3.79-2.6,4.228,4.228,0,0,0-3.79,2.6,2.834,2.834,0,0,1-2.5,1.8,2.834,2.834,0,0,1-2.5-1.8,4.225,4.225,0,0,0-3.8-2.6,4.226,4.226,0,0,0-3.78,2.6.72.72,0,0,0,.34.96A.72.72,0,0,0-.91,45a2.823,2.823,0,0,1,2.5-1.8A2.834,2.834,0,0,1,4.09,45a4.18,4.18,0,0,0,3.77,2.6Z" fill="#fff"/>
      <path id="Trazado_248-2" data-name="Trazado 248" d="M53.04,81.06a2,2,0,1,0,1.645-2.305A2,2,0,0,0,53.04,81.06ZM14.89,63.92a3.26,3.26,0,1,0-.965-2.315,3.28,3.28,0,0,0,.965,2.315Zm52.8-52.54a5.99,5.99,0,0,0,11.8-1.97,5.99,5.99,0,0,0-11.8,1.97Z" fill="#fff"/>
      <path id="Trazado_249-2" data-name="Trazado 249" d="M80.37,64.6a13.041,13.041,0,1,0,0,.01ZM26.83,26.14l-1.67,4.77-1.68,4.78-3.3-3.84L16.9,28l4.97-.93ZM81.15,41.86l1.76,4.73,1.78,4.74L79.7,50.5l-4.99-.84,3.22-3.9Z" fill="#fff"/>
    </g>
    <g id="pattern_2_3" data-name="pattern (2)" transform="matrix(0.914, -0.407, 0.407, 0.914, 1357.621, 460.393)">
      <rect id="Rectángulo_1136-3" data-name="Rectángulo 1136" width="100" height="100" fill="rgba(255,255,255,0)"/>
      <path id="Trazado_246-3" data-name="Trazado 246" d="M92.4,11.82a1.2,1.2,0,0,1,1.11,1.74A6.47,6.47,0,0,0,105,19.46a1.2,1.2,0,0,1,1.6-.52,1.176,1.176,0,0,1,.59.7,1.191,1.191,0,0,1-.1.88,8.824,8.824,0,0,1-15.7-8.06,1.17,1.17,0,0,1,1-.64Zm-100,0a1.2,1.2,0,0,1,1.05.554,1.2,1.2,0,0,1,.06,1.186,6.47,6.47,0,0,0,2.8,8.68,6.47,6.47,0,0,0,8.68-2.78,1.2,1.2,0,0,1,1.6-.52,1.129,1.129,0,0,1,.6.7,1.191,1.191,0,0,1-.1.88,8.77,8.77,0,0,1-5.14,4.36,8.8,8.8,0,0,1-6.735-.543A8.8,8.8,0,0,1-9.15,19.18a8.79,8.79,0,0,1,.54-6.72,1.17,1.17,0,0,1,1-.64ZM53.9,27.08a7.905,7.905,0,0,1,4.98,1.99,1.079,1.079,0,0,1-.64,1.88,1.027,1.027,0,0,1-.78-.27,5.84,5.84,0,0,0-7.72,8.74,1.04,1.04,0,0,1,.1,1.5,1.082,1.082,0,0,1-.74.37,1.044,1.044,0,0,1-.77-.27,7.956,7.956,0,0,1,4.78-13.93,6.942,6.942,0,0,1,.79-.01ZM46.72,50.42a9.4,9.4,0,1,1-9.1,8.733,9.42,9.42,0,0,1,9.1-8.733Zm.06,1.78a7.624,7.624,0,1,0,7.855,7.385A7.624,7.624,0,0,0,46.78,52.2ZM25.38,68.93l4.83,9.23L16.48,85.33l-4.82-9.22Z" fill="#fff"/>
      <path id="Trazado_247-3" data-name="Trazado 247" d="M107.9,52.52a4.225,4.225,0,0,0,3.78-2.61,2.643,2.643,0,0,1,5.01,0,4.062,4.062,0,0,0,7.58,0,2.834,2.834,0,0,1,2.5-1.8,2.668,2.668,0,0,1,2.2,1.27.713.713,0,0,0,.89.25h.02a.7.7,0,0,0,.29-1.02,4.08,4.08,0,0,0-3.4-1.92,4.225,4.225,0,0,0-3.78,2.61,2.643,2.643,0,0,1-5.01,0,4.062,4.062,0,0,0-7.58,0,2.636,2.636,0,0,1-5,0,4.061,4.061,0,0,0-7.57-.02.74.74,0,0,0,.25.94.72.72,0,0,0,1.03-.3,2.636,2.636,0,0,1,5,0,4.228,4.228,0,0,0,3.79,2.6Zm-.04-4.91A4.239,4.239,0,0,0,111.65,45a2.636,2.636,0,0,1,5,0,4.062,4.062,0,0,0,7.58,0,2.643,2.643,0,0,1,5.01,0,.72.72,0,0,0,1.3-.62,4.062,4.062,0,0,0-7.58,0,2.643,2.643,0,0,1-5.01,0,4.062,4.062,0,0,0-7.58,0,2.636,2.636,0,0,1-5,0,4.062,4.062,0,0,0-7.58,0,.72.72,0,0,0,1.3.62,2.636,2.636,0,0,1,5,0,4.191,4.191,0,0,0,3.77,2.6Zm-65-66.88L25.77-6.92,8.72,5.44l19.23,8.6,19.24,8.61L45.02,1.7Zm0,100L25.77,93.08,8.72,105.44l19.23,8.6,19.24,8.61-2.17-20.96ZM7.9,52.52a4.225,4.225,0,0,0,3.78-2.61,2.845,2.845,0,0,1,2.5-1.8,2.836,2.836,0,0,1,2.51,1.8,4.225,4.225,0,0,0,3.8,2.6,4.226,4.226,0,0,0,3.78-2.6,2.834,2.834,0,0,1,2.5-1.8,2.668,2.668,0,0,1,2.2,1.27.71.71,0,0,0,.89.25h.02a.7.7,0,0,0,.29-1.02,4.08,4.08,0,0,0-3.4-1.92,4.214,4.214,0,0,0-3.78,2.61,2.873,2.873,0,0,1-2.5,1.8,2.853,2.853,0,0,1-2.51-1.8,4.225,4.225,0,0,0-3.8-2.6,4.226,4.226,0,0,0-3.78,2.6,2.851,2.851,0,0,1-2.5,1.8,2.84,2.84,0,0,1-2.5-1.8,4.225,4.225,0,0,0-3.8-2.6,4.192,4.192,0,0,0-3.77,2.58.74.74,0,0,0,.25.94.72.72,0,0,0,1.03-.3,2.851,2.851,0,0,1,2.5-1.8,2.84,2.84,0,0,1,2.5,1.8,4.218,4.218,0,0,0,3.79,2.6Zm-.04-4.91A4.239,4.239,0,0,0,11.65,45a2.834,2.834,0,0,1,2.5-1.8,2.823,2.823,0,0,1,2.5,1.8,4.225,4.225,0,0,0,3.8,2.6A4.226,4.226,0,0,0,24.23,45a2.845,2.845,0,0,1,2.5-1.8A2.836,2.836,0,0,1,29.24,45a.72.72,0,1,0,1.3-.62,4.062,4.062,0,0,0-7.58,0,2.845,2.845,0,0,1-2.5,1.8,2.836,2.836,0,0,1-2.51-1.8,4.223,4.223,0,0,0-3.79-2.6,4.228,4.228,0,0,0-3.79,2.6,2.834,2.834,0,0,1-2.5,1.8,2.834,2.834,0,0,1-2.5-1.8,4.225,4.225,0,0,0-3.8-2.6,4.226,4.226,0,0,0-3.78,2.6.72.72,0,0,0,.34.96A.72.72,0,0,0-.91,45a2.823,2.823,0,0,1,2.5-1.8A2.834,2.834,0,0,1,4.09,45a4.18,4.18,0,0,0,3.77,2.6Z" fill="#fff"/>
      <path id="Trazado_248-3" data-name="Trazado 248" d="M53.04,81.06a2,2,0,1,0,1.645-2.305A2,2,0,0,0,53.04,81.06ZM14.89,63.92a3.26,3.26,0,1,0-.965-2.315,3.28,3.28,0,0,0,.965,2.315Zm52.8-52.54a5.99,5.99,0,0,0,11.8-1.97,5.99,5.99,0,0,0-11.8,1.97Z" fill="#fff"/>
      <path id="Trazado_249-3" data-name="Trazado 249" d="M80.37,64.6a13.041,13.041,0,1,0,0,.01ZM26.83,26.14l-1.67,4.77-1.68,4.78-3.3-3.84L16.9,28l4.97-.93ZM81.15,41.86l1.76,4.73,1.78,4.74L79.7,50.5l-4.99-.84,3.22-3.9Z" fill="#fff"/>
    </g>
    <g id="pattern_2_4" data-name="pattern (2)" transform="matrix(0.946, 0.326, -0.326, 0.946, 1471.539, 352.839)">
      <rect id="Rectángulo_1136-4" data-name="Rectángulo 1136" width="46.167" height="45.791" transform="translate(-5.156 -10.446)" fill="rgba(255,255,255,0)"/>
      <path id="Trazado_246-4" data-name="Trazado 246" d="M37.5,11.82a.555.555,0,0,1,.485.254.546.546,0,0,1,.028.543,2.952,2.952,0,0,0,1.37,3.827,3,3,0,0,0,3.934-1.125.556.556,0,0,1,.739-.238.519.519,0,0,1,.226.723,4.045,4.045,0,0,1-2.373,2,4.088,4.088,0,0,1-3.11-.247,4.039,4.039,0,0,1-1.765-5.441.54.54,0,0,1,.462-.293Zm-46.167,0a.555.555,0,0,1,.485.254.546.546,0,0,1,.028.543A2.951,2.951,0,0,0-6.86,16.591a3,3,0,0,0,4.007-1.273.556.556,0,0,1,.739-.238.518.518,0,0,1,.277.321.542.542,0,0,1-.046.4,4.04,4.04,0,0,1-2.373,2,4.093,4.093,0,0,1-3.109-.248A4.039,4.039,0,0,1-9.38,15.19a4,4,0,0,1,.249-3.077.54.54,0,0,1,.462-.293Zm28.393,6.988a3.666,3.666,0,0,1,2.3.911.492.492,0,0,1,.157.462.5.5,0,0,1-.452.4.477.477,0,0,1-.36-.124,2.712,2.712,0,0,0-3.689.331,2.658,2.658,0,0,0,.124,3.671.474.474,0,0,1,.046.687.5.5,0,0,1-.342.169.485.485,0,0,1-.355-.124,3.645,3.645,0,0,1-.331-5.158,3.668,3.668,0,0,1,2.537-1.221,3.231,3.231,0,0,1,.365,0ZM16.413,29.495a4.356,4.356,0,0,1,4.042,2.268,4.284,4.284,0,0,1-.328,4.6A4.366,4.366,0,0,1,15.8,38.04a4.3,4.3,0,0,1,.609-8.545Zm.028.815a3.491,3.491,0,1,0,3.626,3.382A3.5,3.5,0,0,0,16.441,30.31Zm-9.88,7.661L8.791,42.2,2.452,45.481.227,41.259Z" transform="translate(0 -16.853)" fill="#fff"/>
      <path id="Trazado_247-4" data-name="Trazado 247" d="M48.587,13.6a1.951,1.951,0,0,0,1.745-1.2,1.223,1.223,0,0,1,2.313,0,1.881,1.881,0,0,0,3.5,0,1.308,1.308,0,0,1,1.154-.824,1.234,1.234,0,0,1,1.016.582.331.331,0,0,0,.411.114h.009a.319.319,0,0,0,.134-.467,1.887,1.887,0,0,0-1.57-.879,1.951,1.951,0,0,0-1.745,1.2,1.223,1.223,0,0,1-2.313,0,1.881,1.881,0,0,0-3.5,0,1.22,1.22,0,0,1-2.308,0,1.88,1.88,0,0,0-3.495-.009.337.337,0,0,0,.115.43.334.334,0,0,0,.476-.137,1.22,1.22,0,0,1,2.308,0,1.952,1.952,0,0,0,1.75,1.191Zm-.018-2.248a1.957,1.957,0,0,0,1.75-1.2,1.22,1.22,0,0,1,2.308,0,1.881,1.881,0,0,0,3.5,0,1.223,1.223,0,0,1,2.313,0,.334.334,0,0,0,.443.156.329.329,0,0,0,.157-.44,1.881,1.881,0,0,0-3.5,0,1.223,1.223,0,0,1-2.313,0,1.881,1.881,0,0,0-3.5,0,1.22,1.22,0,0,1-2.308,0,1.881,1.881,0,0,0-3.5,0,.329.329,0,0,0,.157.44.334.334,0,0,0,.443-.156,1.22,1.22,0,0,1,2.308,0,1.935,1.935,0,0,0,1.741,1.191ZM18.56-19.27l-7.89,5.655L2.8-7.955l8.878,3.938L20.559-.074l-1-9.593Zm0,45.791-7.89,5.655L2.8,37.836l8.878,3.938,8.883,3.943-1-9.6ZM2.42,13.6a1.951,1.951,0,0,0,1.745-1.2,1.313,1.313,0,0,1,1.154-.824,1.309,1.309,0,0,1,1.159.824A1.951,1.951,0,0,0,8.232,13.6a1.951,1.951,0,0,0,1.745-1.191,1.308,1.308,0,0,1,1.154-.824,1.234,1.234,0,0,1,1.016.582.329.329,0,0,0,.411.114h.009a.319.319,0,0,0,.134-.467,1.887,1.887,0,0,0-1.57-.879,1.946,1.946,0,0,0-1.745,1.2,1.326,1.326,0,0,1-1.154.824,1.317,1.317,0,0,1-1.159-.824,1.951,1.951,0,0,0-1.754-1.191,1.951,1.951,0,0,0-1.745,1.191,1.316,1.316,0,0,1-1.154.824,1.311,1.311,0,0,1-1.154-.824A1.951,1.951,0,0,0-.489,10.938,1.935,1.935,0,0,0-2.229,12.12a.337.337,0,0,0,.115.43.334.334,0,0,0,.476-.137,1.316,1.316,0,0,1,1.154-.824,1.311,1.311,0,0,1,1.154.824A1.947,1.947,0,0,0,2.42,13.6ZM2.4,11.355a1.957,1.957,0,0,0,1.75-1.2,1.308,1.308,0,0,1,1.154-.824,1.3,1.3,0,0,1,1.154.824A1.951,1.951,0,0,0,8.214,11.35,1.951,1.951,0,0,0,9.959,10.16a1.313,1.313,0,0,1,1.154-.824,1.309,1.309,0,0,1,1.159.824.334.334,0,0,0,.443.156.329.329,0,0,0,.157-.44,1.881,1.881,0,0,0-3.5,0,1.313,1.313,0,0,1-1.154.824,1.309,1.309,0,0,1-1.159-.824A1.95,1.95,0,0,0,5.31,8.685,1.952,1.952,0,0,0,3.56,9.876a1.308,1.308,0,0,1-1.154.824,1.308,1.308,0,0,1-1.154-.824A1.951,1.951,0,0,0-.5,8.685,1.951,1.951,0,0,0-2.248,9.876a.329.329,0,0,0,.157.44.334.334,0,0,0,.443-.156A1.3,1.3,0,0,1-.493,9.336a1.308,1.308,0,0,1,1.154.824A1.93,1.93,0,0,0,2.4,11.35Z" transform="translate(-3.929)" fill="#fff"/>
      <path id="Trazado_248-4" data-name="Trazado 248" d="M31.983,39.675a.924.924,0,1,0,.759-1.055.924.924,0,0,0-.759,1.055ZM14.371,31.826a1.523,1.523,0,0,0,2.074-.063,1.493,1.493,0,0,0,.063-2.057,1.523,1.523,0,0,0-2.138,0,1.484,1.484,0,0,0,0,2.12ZM38.747,7.767a2.766,2.766,0,0,0,5.448-.9,2.766,2.766,0,0,0-5.448.9Z" transform="translate(-12.653 -13.003)" fill="#fff"/>
      <path id="Trazado_249-4" data-name="Trazado 249" d="M46.2,43.751a6.222,6.222,0,1,1-6.528,5.957A6.242,6.242,0,0,1,46.2,43.751ZM21.484,26.14l-.771,2.184-.776,2.189-1.524-1.758L16.9,26.992l2.295-.426Zm25.078,7.2.813,2.166.822,2.17-2.3-.38-2.3-.385,1.487-1.786Z" transform="translate(-14.254 -24.616)" fill="#fff"/>
    </g>
    <g id="pattern_2_5" data-name="pattern (2)" transform="matrix(0.946, 0.326, -0.326, 0.946, 1272.539, 491.321)">
      <rect id="Rectángulo_1136-5" data-name="Rectángulo 1136" width="46.167" height="45.791" transform="translate(-5.156 -10.446)" fill="rgba(255,255,255,0)"/>
      <path id="Trazado_246-5" data-name="Trazado 246" d="M37.5,11.82a.555.555,0,0,1,.485.254.546.546,0,0,1,.028.543,2.952,2.952,0,0,0,1.37,3.827,3,3,0,0,0,3.934-1.125.556.556,0,0,1,.739-.238.519.519,0,0,1,.226.723,4.045,4.045,0,0,1-2.373,2,4.088,4.088,0,0,1-3.11-.247,4.039,4.039,0,0,1-1.765-5.441.54.54,0,0,1,.462-.293Zm-46.167,0a.555.555,0,0,1,.485.254.546.546,0,0,1,.028.543A2.951,2.951,0,0,0-6.86,16.591a3,3,0,0,0,4.007-1.273.556.556,0,0,1,.739-.238.518.518,0,0,1,.277.321.542.542,0,0,1-.046.4,4.04,4.04,0,0,1-2.373,2,4.093,4.093,0,0,1-3.109-.248A4.039,4.039,0,0,1-9.38,15.19a4,4,0,0,1,.249-3.077.54.54,0,0,1,.462-.293Zm28.393,6.988a3.666,3.666,0,0,1,2.3.911.492.492,0,0,1,.157.462.5.5,0,0,1-.452.4.477.477,0,0,1-.36-.124,2.712,2.712,0,0,0-3.689.331,2.658,2.658,0,0,0,.124,3.671.474.474,0,0,1,.046.687.5.5,0,0,1-.342.169.485.485,0,0,1-.355-.124,3.645,3.645,0,0,1-.331-5.158,3.668,3.668,0,0,1,2.537-1.221,3.231,3.231,0,0,1,.365,0ZM16.413,29.495a4.356,4.356,0,0,1,4.042,2.268,4.284,4.284,0,0,1-.328,4.6A4.366,4.366,0,0,1,15.8,38.04a4.3,4.3,0,0,1,.609-8.545Zm.028.815a3.491,3.491,0,1,0,3.626,3.382A3.5,3.5,0,0,0,16.441,30.31Zm-9.88,7.661L8.791,42.2,2.452,45.481.227,41.259Z" transform="translate(0 -16.853)" fill="#fff"/>
      <path id="Trazado_247-5" data-name="Trazado 247" d="M48.587,13.6a1.951,1.951,0,0,0,1.745-1.2,1.223,1.223,0,0,1,2.313,0,1.881,1.881,0,0,0,3.5,0,1.308,1.308,0,0,1,1.154-.824,1.234,1.234,0,0,1,1.016.582.331.331,0,0,0,.411.114h.009a.319.319,0,0,0,.134-.467,1.887,1.887,0,0,0-1.57-.879,1.951,1.951,0,0,0-1.745,1.2,1.223,1.223,0,0,1-2.313,0,1.881,1.881,0,0,0-3.5,0,1.22,1.22,0,0,1-2.308,0,1.88,1.88,0,0,0-3.495-.009.337.337,0,0,0,.115.43.334.334,0,0,0,.476-.137,1.22,1.22,0,0,1,2.308,0,1.952,1.952,0,0,0,1.75,1.191Zm-.018-2.248a1.957,1.957,0,0,0,1.75-1.2,1.22,1.22,0,0,1,2.308,0,1.881,1.881,0,0,0,3.5,0,1.223,1.223,0,0,1,2.313,0,.334.334,0,0,0,.443.156.329.329,0,0,0,.157-.44,1.881,1.881,0,0,0-3.5,0,1.223,1.223,0,0,1-2.313,0,1.881,1.881,0,0,0-3.5,0,1.22,1.22,0,0,1-2.308,0,1.881,1.881,0,0,0-3.5,0,.329.329,0,0,0,.157.44.334.334,0,0,0,.443-.156,1.22,1.22,0,0,1,2.308,0,1.935,1.935,0,0,0,1.741,1.191ZM18.56-19.27l-7.89,5.655L2.8-7.955l8.878,3.938L20.559-.074l-1-9.593Zm0,45.791-7.89,5.655L2.8,37.836l8.878,3.938,8.883,3.943-1-9.6ZM2.42,13.6a1.951,1.951,0,0,0,1.745-1.2,1.313,1.313,0,0,1,1.154-.824,1.309,1.309,0,0,1,1.159.824A1.951,1.951,0,0,0,8.232,13.6a1.951,1.951,0,0,0,1.745-1.191,1.308,1.308,0,0,1,1.154-.824,1.234,1.234,0,0,1,1.016.582.329.329,0,0,0,.411.114h.009a.319.319,0,0,0,.134-.467,1.887,1.887,0,0,0-1.57-.879,1.946,1.946,0,0,0-1.745,1.2,1.326,1.326,0,0,1-1.154.824,1.317,1.317,0,0,1-1.159-.824,1.951,1.951,0,0,0-1.754-1.191,1.951,1.951,0,0,0-1.745,1.191,1.316,1.316,0,0,1-1.154.824,1.311,1.311,0,0,1-1.154-.824A1.951,1.951,0,0,0-.489,10.938,1.935,1.935,0,0,0-2.229,12.12a.337.337,0,0,0,.115.43.334.334,0,0,0,.476-.137,1.316,1.316,0,0,1,1.154-.824,1.311,1.311,0,0,1,1.154.824A1.947,1.947,0,0,0,2.42,13.6ZM2.4,11.355a1.957,1.957,0,0,0,1.75-1.2,1.308,1.308,0,0,1,1.154-.824,1.3,1.3,0,0,1,1.154.824A1.951,1.951,0,0,0,8.214,11.35,1.951,1.951,0,0,0,9.959,10.16a1.313,1.313,0,0,1,1.154-.824,1.309,1.309,0,0,1,1.159.824.334.334,0,0,0,.443.156.329.329,0,0,0,.157-.44,1.881,1.881,0,0,0-3.5,0,1.313,1.313,0,0,1-1.154.824,1.309,1.309,0,0,1-1.159-.824A1.95,1.95,0,0,0,5.31,8.685,1.952,1.952,0,0,0,3.56,9.876a1.308,1.308,0,0,1-1.154.824,1.308,1.308,0,0,1-1.154-.824A1.951,1.951,0,0,0-.5,8.685,1.951,1.951,0,0,0-2.248,9.876a.329.329,0,0,0,.157.44.334.334,0,0,0,.443-.156A1.3,1.3,0,0,1-.493,9.336a1.308,1.308,0,0,1,1.154.824A1.93,1.93,0,0,0,2.4,11.35Z" transform="translate(-3.929)" fill="#fff"/>
      <path id="Trazado_248-5" data-name="Trazado 248" d="M31.983,39.675a.924.924,0,1,0,.759-1.055.924.924,0,0,0-.759,1.055ZM14.371,31.826a1.523,1.523,0,0,0,2.074-.063,1.493,1.493,0,0,0,.063-2.057,1.523,1.523,0,0,0-2.138,0,1.484,1.484,0,0,0,0,2.12ZM38.747,7.767a2.766,2.766,0,0,0,5.448-.9,2.766,2.766,0,0,0-5.448.9Z" transform="translate(-12.653 -13.003)" fill="#fff"/>
      <path id="Trazado_249-5" data-name="Trazado 249" d="M46.2,43.751a6.222,6.222,0,1,1-6.528,5.957A6.242,6.242,0,0,1,46.2,43.751ZM21.484,26.14l-.771,2.184-.776,2.189-1.524-1.758L16.9,26.992l2.295-.426Zm25.078,7.2.813,2.166.822,2.17-2.3-.38-2.3-.385,1.487-1.786Z" transform="translate(-14.254 -24.616)" fill="#fff"/>
    </g>
    <g id="pattern_2_6" data-name="pattern (2)" transform="matrix(0.946, 0.326, -0.326, 0.946, 1371.805, 372.321)">
      <rect id="Rectángulo_1136-6" data-name="Rectángulo 1136" width="30.776" height="32.013" transform="translate(-6.63 -13.101)" fill="rgba(255,255,255,0)"/>
      <path id="Trazado_246-6" data-name="Trazado 246" d="M21.807,11.82A.366.366,0,0,1,22.13,12a.4.4,0,0,1,.018.38,2.11,2.11,0,0,0,.914,2.675,1.95,1.95,0,0,0,2.623-.787.363.363,0,0,1,.492-.166.373.373,0,0,1,.182.224.4.4,0,0,1-.031.282A2.734,2.734,0,0,1,24.746,16a2.611,2.611,0,0,1-2.073-.172,2.788,2.788,0,0,1-1.343-1.652,2.917,2.917,0,0,1,.166-2.151.359.359,0,0,1,.308-.2Zm-30.776,0A.366.366,0,0,1-8.646,12a.4.4,0,0,1,.018.38,2.112,2.112,0,0,0,.862,2.779,1.955,1.955,0,0,0,2.671-.89A.363.363,0,0,1-4.6,14.1a.358.358,0,0,1,.185.224.4.4,0,0,1-.031.282A2.731,2.731,0,0,1-6.03,16,2.614,2.614,0,0,1-8.1,15.827a2.791,2.791,0,0,1-1.343-1.651,2.917,2.917,0,0,1,.166-2.151.359.359,0,0,1,.308-.2ZM9.958,16.7a2.383,2.383,0,0,1,1.533.637.354.354,0,0,1,.1.323.34.34,0,0,1-.3.279.309.309,0,0,1-.24-.086,1.749,1.749,0,0,0-2.459.231,1.924,1.924,0,0,0,.083,2.567.338.338,0,0,1,.114.233.341.341,0,0,1-.083.247.329.329,0,0,1-.228.118.314.314,0,0,1-.237-.086,2.636,2.636,0,0,1-.22-3.606,2.4,2.4,0,0,1,1.691-.853,2.054,2.054,0,0,1,.243,0Zm-2.21,7.472a2.879,2.879,0,0,1,2.695,1.586,3.117,3.117,0,0,1-.218,3.212A2.846,2.846,0,0,1,7.342,30.15a2.988,2.988,0,0,1-2.4-3.178,2.947,2.947,0,0,1,2.8-2.8Zm.018.57a2.442,2.442,0,0,0,.145,4.879,2.442,2.442,0,0,0-.145-4.879ZM1.181,30.1l1.486,2.955-4.226,2.3L-3.042,32.4Z" transform="translate(0 -21.137)" fill="#fff"/>
      <path id="Trazado_247-6" data-name="Trazado 247" d="M31.629,3.712a1.3,1.3,0,0,0,1.163-.836.8.8,0,0,1,1.542,0,1.233,1.233,0,0,0,2.333,0,.875.875,0,0,1,.769-.576.815.815,0,0,1,.677.407.215.215,0,0,0,.274.08h.006a.222.222,0,0,0,.117-.142.232.232,0,0,0-.027-.185,1.246,1.246,0,0,0-1.046-.615,1.3,1.3,0,0,0-1.163.836.8.8,0,0,1-1.542,0,1.233,1.233,0,0,0-2.333,0,.8.8,0,0,1-1.539,0,1.233,1.233,0,0,0-2.33-.006.243.243,0,0,0,.077.3.218.218,0,0,0,.317-.1.8.8,0,0,1,1.539,0,1.3,1.3,0,0,0,1.166.832ZM31.617,2.14A1.306,1.306,0,0,0,32.783,1.3a.8.8,0,0,1,1.539,0,1.233,1.233,0,0,0,2.333,0,.8.8,0,0,1,1.542,0,.218.218,0,0,0,.3.109.235.235,0,0,0,.1-.307,1.233,1.233,0,0,0-2.333,0,.8.8,0,0,1-1.542,0,1.233,1.233,0,0,0-2.333,0,.8.8,0,0,1-1.539,0,1.233,1.233,0,0,0-2.333,0,.235.235,0,0,0,.1.307.218.218,0,0,0,.3-.109.8.8,0,0,1,1.539,0,1.291,1.291,0,0,0,1.16.832Zm-20-21.41-5.26,3.954L1.105-11.36,7.023-8.606,12.945-5.85l-.668-6.707Zm0,32.013L6.352,16.7,1.105,20.654l5.918,2.753,5.921,2.756-.668-6.71ZM.853,3.712a1.3,1.3,0,0,0,1.163-.836A.878.878,0,0,1,2.786,2.3a.875.875,0,0,1,.772.576,1.3,1.3,0,0,0,1.169.832,1.3,1.3,0,0,0,1.163-.832A.875.875,0,0,1,6.66,2.3a.815.815,0,0,1,.677.407.214.214,0,0,0,.274.08h.006a.222.222,0,0,0,.117-.142.232.232,0,0,0-.027-.185A1.246,1.246,0,0,0,6.66,1.846,1.3,1.3,0,0,0,5.5,2.682a.887.887,0,0,1-.769.576.88.88,0,0,1-.772-.576,1.3,1.3,0,0,0-1.169-.832,1.3,1.3,0,0,0-1.163.832.88.88,0,0,1-.769.576.876.876,0,0,1-.769-.576,1.3,1.3,0,0,0-1.169-.832,1.291,1.291,0,0,0-1.16.826.243.243,0,0,0,.077.3.218.218,0,0,0,.317-.1A.88.88,0,0,1-1.083,2.3a.876.876,0,0,1,.769.576,1.3,1.3,0,0,0,1.166.832ZM.84,2.14A1.306,1.306,0,0,0,2.007,1.3.875.875,0,0,1,2.776.729a.871.871,0,0,1,.769.576,1.3,1.3,0,0,0,1.169.832A1.3,1.3,0,0,0,5.879,1.3.878.878,0,0,1,6.648.729.875.875,0,0,1,7.42,1.3a.218.218,0,0,0,.3.109.235.235,0,0,0,.1-.307A1.3,1.3,0,0,0,6.651.274a1.3,1.3,0,0,0-1.163.832.878.878,0,0,1-.769.576.875.875,0,0,1-.772-.576A1.3,1.3,0,0,0,2.779.274a1.3,1.3,0,0,0-1.166.832.875.875,0,0,1-.769.576.875.875,0,0,1-.769-.576A1.3,1.3,0,0,0-1.1.274a1.3,1.3,0,0,0-1.163.832.235.235,0,0,0,.1.307.218.218,0,0,0,.3-.109A.871.871,0,0,1-1.089.729.875.875,0,0,1-.32,1.3a1.288,1.288,0,0,0,1.16.832Z" transform="translate(-5.052)" fill="#fff"/>
      <path id="Trazado_248-6" data-name="Trazado 248" d="M25.963,29.156a.619.619,0,0,0,.709.527.639.639,0,0,0,.506-.738.619.619,0,0,0-.709-.527.639.639,0,0,0-.506.738ZM14.222,23.669a.981.981,0,0,0,1.383-.044,1.081,1.081,0,0,0,.042-1.438.982.982,0,0,0-1.425,0,1.073,1.073,0,0,0,0,1.482Zm16.25-16.82a1.848,1.848,0,0,0,2.1,1.476A1.907,1.907,0,0,0,34.1,6.219,1.848,1.848,0,0,0,32,4.742,1.907,1.907,0,0,0,30.472,6.849Z" transform="translate(-16.27 -16.307)" fill="#fff"/>
      <path id="Trazado_249-6" data-name="Trazado 249" d="M36.434,38.452a4.353,4.353,0,1,1-4.352,4.165,4.285,4.285,0,0,1,4.352-4.165ZM19.956,26.14l-.514,1.527-.517,1.53-1.016-1.229L16.9,26.735l1.53-.3Zm16.718,5.032.542,1.514.548,1.517-1.536-.266-1.536-.269.991-1.249Z" transform="translate(-18.329 -30.873)" fill="#fff"/>
    </g>
    <g id="pattern_2_7" data-name="pattern (2)" transform="matrix(0.946, 0.326, -0.326, 0.946, 1528.539, 486.759)">
      <rect id="Rectángulo_1136-7" data-name="Rectángulo 1136" width="46.167" height="45.791" transform="translate(-5.156 -10.446)" fill="rgba(255,255,255,0)"/>
      <path id="Trazado_246-7" data-name="Trazado 246" d="M37.5,11.82a.555.555,0,0,1,.485.254.546.546,0,0,1,.028.543,2.952,2.952,0,0,0,1.37,3.827,3,3,0,0,0,3.934-1.125.556.556,0,0,1,.739-.238.519.519,0,0,1,.226.723,4.045,4.045,0,0,1-2.373,2,4.088,4.088,0,0,1-3.11-.247,4.039,4.039,0,0,1-1.765-5.441.54.54,0,0,1,.462-.293Zm-46.167,0a.555.555,0,0,1,.485.254.546.546,0,0,1,.028.543A2.951,2.951,0,0,0-6.86,16.591a3,3,0,0,0,4.007-1.273.556.556,0,0,1,.739-.238.518.518,0,0,1,.277.321.542.542,0,0,1-.046.4,4.04,4.04,0,0,1-2.373,2,4.093,4.093,0,0,1-3.109-.248A4.039,4.039,0,0,1-9.38,15.19a4,4,0,0,1,.249-3.077.54.54,0,0,1,.462-.293Zm28.393,6.988a3.666,3.666,0,0,1,2.3.911.492.492,0,0,1,.157.462.5.5,0,0,1-.452.4.477.477,0,0,1-.36-.124,2.712,2.712,0,0,0-3.689.331,2.658,2.658,0,0,0,.124,3.671.474.474,0,0,1,.046.687.5.5,0,0,1-.342.169.485.485,0,0,1-.355-.124,3.645,3.645,0,0,1-.331-5.158,3.668,3.668,0,0,1,2.537-1.221,3.231,3.231,0,0,1,.365,0ZM16.413,29.495a4.356,4.356,0,0,1,4.042,2.268,4.284,4.284,0,0,1-.328,4.6A4.366,4.366,0,0,1,15.8,38.04a4.3,4.3,0,0,1,.609-8.545Zm.028.815a3.491,3.491,0,1,0,3.626,3.382A3.5,3.5,0,0,0,16.441,30.31Zm-9.88,7.661L8.791,42.2,2.452,45.481.227,41.259Z" transform="translate(0 -16.853)" fill="#fff"/>
      <path id="Trazado_247-7" data-name="Trazado 247" d="M48.587,13.6a1.951,1.951,0,0,0,1.745-1.2,1.223,1.223,0,0,1,2.313,0,1.881,1.881,0,0,0,3.5,0,1.308,1.308,0,0,1,1.154-.824,1.234,1.234,0,0,1,1.016.582.331.331,0,0,0,.411.114h.009a.319.319,0,0,0,.134-.467,1.887,1.887,0,0,0-1.57-.879,1.951,1.951,0,0,0-1.745,1.2,1.223,1.223,0,0,1-2.313,0,1.881,1.881,0,0,0-3.5,0,1.22,1.22,0,0,1-2.308,0,1.88,1.88,0,0,0-3.495-.009.337.337,0,0,0,.115.43.334.334,0,0,0,.476-.137,1.22,1.22,0,0,1,2.308,0,1.952,1.952,0,0,0,1.75,1.191Zm-.018-2.248a1.957,1.957,0,0,0,1.75-1.2,1.22,1.22,0,0,1,2.308,0,1.881,1.881,0,0,0,3.5,0,1.223,1.223,0,0,1,2.313,0,.334.334,0,0,0,.443.156.329.329,0,0,0,.157-.44,1.881,1.881,0,0,0-3.5,0,1.223,1.223,0,0,1-2.313,0,1.881,1.881,0,0,0-3.5,0,1.22,1.22,0,0,1-2.308,0,1.881,1.881,0,0,0-3.5,0,.329.329,0,0,0,.157.44.334.334,0,0,0,.443-.156,1.22,1.22,0,0,1,2.308,0,1.935,1.935,0,0,0,1.741,1.191ZM18.56-19.27l-7.89,5.655L2.8-7.955l8.878,3.938L20.559-.074l-1-9.593Zm0,45.791-7.89,5.655L2.8,37.836l8.878,3.938,8.883,3.943-1-9.6ZM2.42,13.6a1.951,1.951,0,0,0,1.745-1.2,1.313,1.313,0,0,1,1.154-.824,1.309,1.309,0,0,1,1.159.824A1.951,1.951,0,0,0,8.232,13.6a1.951,1.951,0,0,0,1.745-1.191,1.308,1.308,0,0,1,1.154-.824,1.234,1.234,0,0,1,1.016.582.329.329,0,0,0,.411.114h.009a.319.319,0,0,0,.134-.467,1.887,1.887,0,0,0-1.57-.879,1.946,1.946,0,0,0-1.745,1.2,1.326,1.326,0,0,1-1.154.824,1.317,1.317,0,0,1-1.159-.824,1.951,1.951,0,0,0-1.754-1.191,1.951,1.951,0,0,0-1.745,1.191,1.316,1.316,0,0,1-1.154.824,1.311,1.311,0,0,1-1.154-.824A1.951,1.951,0,0,0-.489,10.938,1.935,1.935,0,0,0-2.229,12.12a.337.337,0,0,0,.115.43.334.334,0,0,0,.476-.137,1.316,1.316,0,0,1,1.154-.824,1.311,1.311,0,0,1,1.154.824A1.947,1.947,0,0,0,2.42,13.6ZM2.4,11.355a1.957,1.957,0,0,0,1.75-1.2,1.308,1.308,0,0,1,1.154-.824,1.3,1.3,0,0,1,1.154.824A1.951,1.951,0,0,0,8.214,11.35,1.951,1.951,0,0,0,9.959,10.16a1.313,1.313,0,0,1,1.154-.824,1.309,1.309,0,0,1,1.159.824.334.334,0,0,0,.443.156.329.329,0,0,0,.157-.44,1.881,1.881,0,0,0-3.5,0,1.313,1.313,0,0,1-1.154.824,1.309,1.309,0,0,1-1.159-.824A1.95,1.95,0,0,0,5.31,8.685,1.952,1.952,0,0,0,3.56,9.876a1.308,1.308,0,0,1-1.154.824,1.308,1.308,0,0,1-1.154-.824A1.951,1.951,0,0,0-.5,8.685,1.951,1.951,0,0,0-2.248,9.876a.329.329,0,0,0,.157.44.334.334,0,0,0,.443-.156A1.3,1.3,0,0,1-.493,9.336a1.308,1.308,0,0,1,1.154.824A1.93,1.93,0,0,0,2.4,11.35Z" transform="translate(-3.929)" fill="#fff"/>
      <path id="Trazado_248-7" data-name="Trazado 248" d="M31.983,39.675a.924.924,0,1,0,.759-1.055.924.924,0,0,0-.759,1.055ZM14.371,31.826a1.523,1.523,0,0,0,2.074-.063,1.493,1.493,0,0,0,.063-2.057,1.523,1.523,0,0,0-2.138,0,1.484,1.484,0,0,0,0,2.12ZM38.747,7.767a2.766,2.766,0,0,0,5.448-.9,2.766,2.766,0,0,0-5.448.9Z" transform="translate(-12.653 -13.003)" fill="#fff"/>
      <path id="Trazado_249-7" data-name="Trazado 249" d="M46.2,43.751a6.222,6.222,0,1,1-6.528,5.957A6.242,6.242,0,0,1,46.2,43.751ZM21.484,26.14l-.771,2.184-.776,2.189-1.524-1.758L16.9,26.992l2.295-.426Zm25.078,7.2.813,2.166.822,2.17-2.3-.38-2.3-.385,1.487-1.786Z" transform="translate(-14.254 -24.616)" fill="#fff"/>
    </g>
  </g>
</svg>
